<svg viewBox="0 0 100 100" xmlns="http://www.w3.org/2000/svg">
  <!-- Moon with radiating moonbeams -->
  <g transform="translate(50,45)">
    <!-- Long moonbeams -->
    <line x1="0" y1="-30" x2="0" y2="-22" stroke="#c7b6e8" stroke-width="2.5" opacity="0.7"/>
    <line x1="21" y1="-21" x2="15" y2="-15" stroke="#c7b6e8" stroke-width="2.5" opacity="0.7"/>
    <line x1="30" y1="0" x2="22" y2="0" stroke="#c7b6e8" stroke-width="2.5" opacity="0.7"/>
    <line x1="21" y1="21" x2="15" y2="15" stroke="#c7b6e8" stroke-width="2.5" opacity="0.7"/>
    <line x1="0" y1="30" x2="0" y2="22" stroke="#c7b6e8" stroke-width="2.5" opacity="0.7"/>
    <line x1="-21" y1="21" x2="-15" y2="15" stroke="#c7b6e8" stroke-width="2.5" opacity="0.7"/>
    <line x1="-30" y1="0" x2="-22" y2="0" stroke="#c7b6e8" stroke-width="2.5" opacity="0.7"/>
    <line x1="-21" y1="-21" x2="-15" y2="-15" stroke="#c7b6e8" stroke-width="2.5" opacity="0.7"/>
    
    <!-- Shorter moonbeams -->
    <line x1="15" y1="-27" x2="11" y2="-20" stroke="#c7b6e8" stroke-width="1.5" opacity="0.6"/>
    <line x1="25" y1="-15" x2="18" y2="-11" stroke="#c7b6e8" stroke-width="1.5" opacity="0.6"/>
    <line x1="25" y1="15" x2="18" y2="11" stroke="#c7b6e8" stroke-width="1.5" opacity="0.6"/>
    <line x1="15" y1="27" x2="11" y2="20" stroke="#c7b6e8" stroke-width="1.5" opacity="0.6"/>
    <line x1="-15" y1="27" x2="-11" y2="20" stroke="#c7b6e8" stroke-width="1.5" opacity="0.6"/>
    <line x1="-25" y1="15" x2="-18" y2="11" stroke="#c7b6e8" stroke-width="1.5" opacity="0.6"/>
    <line x1="-25" y1="-15" x2="-18" y2="-11" stroke="#c7b6e8" stroke-width="1.5" opacity="0.6"/>
    <line x1="-15" y1="-27" x2="-11" y2="-20" stroke="#c7b6e8" stroke-width="1.5" opacity="0.6"/>
  </g>
  
  <!-- Central moon - darker colors -->
  <circle cx="50" cy="45" r="15" fill="#6a5acd" opacity="0.9"/>
  <circle cx="50" cy="45" r="10" fill="#c7b6e8" opacity="0.8"/>
  
  <!-- Moon craters - darker color -->
  <circle cx="48" cy="43" r="1.8" fill="#9370db" opacity="0.7"/>
  <circle cx="53" cy="47" r="1.2" fill="#9370db" opacity="0.7"/>
  <circle cx="51" cy="42" r="1" fill="#9370db" opacity="0.6"/>
  
  <!-- Scattered stars -->
  <g fill="#ffffff" opacity="0.7">
    <!-- Star 1 -->
    <g transform="translate(25,25)">
      <line x1="-3" y1="0" x2="3" y2="0" stroke="#ffffff" stroke-width="1"/>
      <line x1="0" y1="-3" x2="0" y2="3" stroke="#ffffff" stroke-width="1"/>
    </g>
    <!-- Star 2 -->
    <g transform="translate(75,30)">
      <line x1="-2" y1="0" x2="2" y2="0" stroke="#ffffff" stroke-width="0.8"/>
      <line x1="0" y1="-2" x2="0" y2="2" stroke="#ffffff" stroke-width="0.8"/>
    </g>
    <!-- Star 3 -->
    <g transform="translate(20,65)">
      <line x1="-2.5" y1="0" x2="2.5" y2="0" stroke="#ffffff" stroke-width="0.9"/>
      <line x1="0" y1="-2.5" x2="0" y2="2.5" stroke="#ffffff" stroke-width="0.9"/>
    </g>
    <!-- Star 4 -->
    <g transform="translate(80,70)">
      <line x1="-2" y1="0" x2="2" y2="0" stroke="#ffffff" stroke-width="0.7"/>
      <line x1="0" y1="-2" x2="0" y2="2" stroke="#ffffff" stroke-width="0.7"/>
    </g>
    <!-- Small twinkling stars -->
    <circle cx="35" cy="75" r="0.8" fill="#ffffff" opacity="0.8"/>
    <circle cx="65" cy="80" r="0.6" fill="#ffffff" opacity="0.7"/>
    <circle cx="85" cy="50" r="0.7" fill="#ffffff" opacity="0.8"/>
  </g>
</svg>