<svg viewBox="0 0 100 100" xmlns="http://www.w3.org/2000/svg">
                <!-- Sun at zenith with intense rays -->
                <g transform="translate(50,50)">
                    <!-- Long rays -->
                    <line x1="0" y1="-30" x2="0" y2="-20" stroke="#ffd700" stroke-width="3" opacity="0.9"/>
                    <line x1="21" y1="-21" x2="15" y2="-15" stroke="#ffd700" stroke-width="3" opacity="0.9"/>
                    <line x1="30" y1="0" x2="20" y2="0" stroke="#ffd700" stroke-width="3" opacity="0.9"/>
                    <line x1="21" y1="21" x2="15" y2="15" stroke="#ffd700" stroke-width="3" opacity="0.9"/>
                    <line x1="0" y1="30" x2="0" y2="20" stroke="#ffd700" stroke-width="3" opacity="0.9"/>
                    <line x1="-21" y1="21" x2="-15" y2="15" stroke="#ffd700" stroke-width="3" opacity="0.9"/>
                    <line x1="-30" y1="0" x2="-20" y2="0" stroke="#ffd700" stroke-width="3" opacity="0.9"/>
                    <line x1="-21" y1="-21" x2="-15" y2="-15" stroke="#ffd700" stroke-width="3" opacity="0.9"/>
                    
                    <!-- Shorter rays -->
                    <line x1="15" y1="-26" x2="11" y2="-19" stroke="#ffd700" stroke-width="2" opacity="0.7"/>
                    <line x1="26" y1="-15" x2="19" y2="-11" stroke="#ffd700" stroke-width="2" opacity="0.7"/>
                    <line x1="26" y1="15" x2="19" y2="11" stroke="#ffd700" stroke-width="2" opacity="0.7"/>
                    <line x1="15" y1="26" x2="11" y2="19" stroke="#ffd700" stroke-width="2" opacity="0.7"/>
                    <line x1="-15" y1="26" x2="-11" y2="19" stroke="#ffd700" stroke-width="2" opacity="0.7"/>
                    <line x1="-26" y1="15" x2="-19" y2="11" stroke="#ffd700" stroke-width="2" opacity="0.7"/>
                    <line x1="-26" y1="-15" x2="-19" y2="-11" stroke="#ffd700" stroke-width="2" opacity="0.7"/>
                    <line x1="-15" y1="-26" x2="-11" y2="-19" stroke="#ffd700" stroke-width="2" opacity="0.7"/>
                </g>
                
                <!-- Central sun -->
                <circle cx="50" cy="50" r="10" fill="#ffd700" opacity="0.9"/>
                <circle cx="50" cy="50" r="6" fill="#ffff80" opacity="0.8"/>
            </svg>